<mxfile host="www.draw.io" modified="2019-12-11T13:25:35.897Z" agent="Mozilla/5.0 (Windows NT 6.1; rv:71.0) Gecko/20100101 Firefox/71.0" etag="d9bZsRFEKKm06V0b7HUS" version="12.3.9" type="github" pages="1">
  <diagram id="nLrV005SfC70-Y0LDAL0" name="Page-1">
    <mxGraphModel dx="868" dy="479" grid="1" gridSize="10" guides="1" tooltips="1" connect="1" arrows="1" fold="1" page="1" pageScale="1" pageWidth="850" pageHeight="1100" math="0" shadow="0">
      <root>
        <mxCell id="0"/>
        <mxCell id="1" parent="0"/>
        <mxCell id="q7iPShzVkiedBtI2jCNj-25" style="edgeStyle=orthogonalEdgeStyle;rounded=0;orthogonalLoop=1;jettySize=auto;html=1;exitX=0.5;exitY=1;exitDx=0;exitDy=0;entryX=0.5;entryY=0;entryDx=0;entryDy=0;" parent="1" source="q7iPShzVkiedBtI2jCNj-1" target="q7iPShzVkiedBtI2jCNj-3" edge="1">
          <mxGeometry relative="1" as="geometry"/>
        </mxCell>
        <mxCell id="q7iPShzVkiedBtI2jCNj-1" value="START" style="ellipse;whiteSpace=wrap;html=1;" parent="1" vertex="1">
          <mxGeometry x="375" y="10" width="100" height="50" as="geometry"/>
        </mxCell>
        <mxCell id="q7iPShzVkiedBtI2jCNj-2" value="END" style="ellipse;whiteSpace=wrap;html=1;" parent="1" vertex="1">
          <mxGeometry x="730" y="1040" width="100" height="50" as="geometry"/>
        </mxCell>
        <mxCell id="q7iPShzVkiedBtI2jCNj-26" style="edgeStyle=orthogonalEdgeStyle;rounded=0;orthogonalLoop=1;jettySize=auto;html=1;entryX=0.5;entryY=0;entryDx=0;entryDy=0;" parent="1" source="q7iPShzVkiedBtI2jCNj-3" target="q7iPShzVkiedBtI2jCNj-5" edge="1">
          <mxGeometry relative="1" as="geometry"/>
        </mxCell>
        <mxCell id="q7iPShzVkiedBtI2jCNj-3" value="Declare count, results" style="shape=hexagon;perimeter=hexagonPerimeter2;whiteSpace=wrap;html=1;" parent="1" vertex="1">
          <mxGeometry x="365" y="80" width="120" height="60" as="geometry"/>
        </mxCell>
        <mxCell id="q7iPShzVkiedBtI2jCNj-24" style="edgeStyle=orthogonalEdgeStyle;rounded=0;orthogonalLoop=1;jettySize=auto;html=1;entryX=0.5;entryY=0;entryDx=0;entryDy=0;" parent="1" source="q7iPShzVkiedBtI2jCNj-4" target="q7iPShzVkiedBtI2jCNj-6" edge="1">
          <mxGeometry relative="1" as="geometry"/>
        </mxCell>
        <mxCell id="q7iPShzVkiedBtI2jCNj-4" value="Ask user for an integer number" style="shape=parallelogram;perimeter=parallelogramPerimeter;whiteSpace=wrap;html=1;" parent="1" vertex="1">
          <mxGeometry x="305" y="220" width="240" height="40" as="geometry"/>
        </mxCell>
        <mxCell id="q7iPShzVkiedBtI2jCNj-31" style="edgeStyle=orthogonalEdgeStyle;rounded=0;orthogonalLoop=1;jettySize=auto;html=1;entryX=0.5;entryY=0;entryDx=0;entryDy=0;" parent="1" source="q7iPShzVkiedBtI2jCNj-5" target="q7iPShzVkiedBtI2jCNj-4" edge="1">
          <mxGeometry relative="1" as="geometry"/>
        </mxCell>
        <mxCell id="q7iPShzVkiedBtI2jCNj-5" value="count = 0, results = &quot;&quot;" style="rounded=0;whiteSpace=wrap;html=1;" parent="1" vertex="1">
          <mxGeometry x="362" y="160" width="125" height="35" as="geometry"/>
        </mxCell>
        <mxCell id="q7iPShzVkiedBtI2jCNj-15" style="edgeStyle=orthogonalEdgeStyle;rounded=0;orthogonalLoop=1;jettySize=auto;html=1;entryX=0;entryY=0.5;entryDx=0;entryDy=0;" parent="1" source="q7iPShzVkiedBtI2jCNj-6" target="q7iPShzVkiedBtI2jCNj-12" edge="1">
          <mxGeometry relative="1" as="geometry"/>
        </mxCell>
        <mxCell id="q7iPShzVkiedBtI2jCNj-19" style="edgeStyle=orthogonalEdgeStyle;rounded=0;orthogonalLoop=1;jettySize=auto;html=1;entryX=0.5;entryY=0;entryDx=0;entryDy=0;" parent="1" source="q7iPShzVkiedBtI2jCNj-6" target="q7iPShzVkiedBtI2jCNj-7" edge="1">
          <mxGeometry relative="1" as="geometry"/>
        </mxCell>
        <mxCell id="q7iPShzVkiedBtI2jCNj-6" value="number/200 &amp;gt; 0?" style="rhombus;whiteSpace=wrap;html=1;" parent="1" vertex="1">
          <mxGeometry x="40" y="260" width="120" height="110" as="geometry"/>
        </mxCell>
        <mxCell id="hdde1lct7cE2Mw9mdJ7z-5" style="edgeStyle=orthogonalEdgeStyle;rounded=0;orthogonalLoop=1;jettySize=auto;html=1;entryX=0;entryY=0.5;entryDx=0;entryDy=0;" edge="1" parent="1" source="q7iPShzVkiedBtI2jCNj-7" target="hdde1lct7cE2Mw9mdJ7z-1">
          <mxGeometry relative="1" as="geometry"/>
        </mxCell>
        <mxCell id="hdde1lct7cE2Mw9mdJ7z-9" style="edgeStyle=orthogonalEdgeStyle;rounded=0;orthogonalLoop=1;jettySize=auto;html=1;entryX=0.5;entryY=0;entryDx=0;entryDy=0;" edge="1" parent="1" source="q7iPShzVkiedBtI2jCNj-7" target="q7iPShzVkiedBtI2jCNj-8">
          <mxGeometry relative="1" as="geometry"/>
        </mxCell>
        <mxCell id="q7iPShzVkiedBtI2jCNj-7" value="number/100 &amp;gt; 0?" style="rhombus;whiteSpace=wrap;html=1;" parent="1" vertex="1">
          <mxGeometry x="40" y="390" width="120" height="110" as="geometry"/>
        </mxCell>
        <mxCell id="hdde1lct7cE2Mw9mdJ7z-56" style="edgeStyle=orthogonalEdgeStyle;rounded=0;orthogonalLoop=1;jettySize=auto;html=1;entryX=0.5;entryY=0;entryDx=0;entryDy=0;" edge="1" parent="1" source="q7iPShzVkiedBtI2jCNj-8" target="q7iPShzVkiedBtI2jCNj-9">
          <mxGeometry relative="1" as="geometry"/>
        </mxCell>
        <mxCell id="hdde1lct7cE2Mw9mdJ7z-62" style="edgeStyle=orthogonalEdgeStyle;rounded=0;orthogonalLoop=1;jettySize=auto;html=1;entryX=0;entryY=0.5;entryDx=0;entryDy=0;" edge="1" parent="1" source="q7iPShzVkiedBtI2jCNj-8" target="hdde1lct7cE2Mw9mdJ7z-11">
          <mxGeometry relative="1" as="geometry"/>
        </mxCell>
        <mxCell id="q7iPShzVkiedBtI2jCNj-8" value="number/50 &amp;gt; 0?" style="rhombus;whiteSpace=wrap;html=1;" parent="1" vertex="1">
          <mxGeometry x="40" y="520" width="120" height="110" as="geometry"/>
        </mxCell>
        <mxCell id="hdde1lct7cE2Mw9mdJ7z-45" style="edgeStyle=orthogonalEdgeStyle;rounded=0;orthogonalLoop=1;jettySize=auto;html=1;entryX=0.5;entryY=0;entryDx=0;entryDy=0;" edge="1" parent="1" source="q7iPShzVkiedBtI2jCNj-9" target="q7iPShzVkiedBtI2jCNj-10">
          <mxGeometry relative="1" as="geometry"/>
        </mxCell>
        <mxCell id="hdde1lct7cE2Mw9mdJ7z-46" style="edgeStyle=orthogonalEdgeStyle;rounded=0;orthogonalLoop=1;jettySize=auto;html=1;entryX=0;entryY=0.5;entryDx=0;entryDy=0;" edge="1" parent="1" source="q7iPShzVkiedBtI2jCNj-9" target="hdde1lct7cE2Mw9mdJ7z-15">
          <mxGeometry relative="1" as="geometry"/>
        </mxCell>
        <mxCell id="q7iPShzVkiedBtI2jCNj-9" value="number/20&amp;gt; 0?" style="rhombus;whiteSpace=wrap;html=1;" parent="1" vertex="1">
          <mxGeometry x="40" y="650" width="120" height="110" as="geometry"/>
        </mxCell>
        <mxCell id="hdde1lct7cE2Mw9mdJ7z-38" style="edgeStyle=orthogonalEdgeStyle;rounded=0;orthogonalLoop=1;jettySize=auto;html=1;entryX=0;entryY=0.5;entryDx=0;entryDy=0;" edge="1" parent="1" source="q7iPShzVkiedBtI2jCNj-10" target="hdde1lct7cE2Mw9mdJ7z-19">
          <mxGeometry relative="1" as="geometry"/>
        </mxCell>
        <mxCell id="hdde1lct7cE2Mw9mdJ7z-70" style="edgeStyle=orthogonalEdgeStyle;rounded=0;orthogonalLoop=1;jettySize=auto;html=1;entryX=0.5;entryY=0;entryDx=0;entryDy=0;" edge="1" parent="1" source="q7iPShzVkiedBtI2jCNj-10" target="q7iPShzVkiedBtI2jCNj-11">
          <mxGeometry relative="1" as="geometry"/>
        </mxCell>
        <mxCell id="q7iPShzVkiedBtI2jCNj-10" value="number/10&amp;gt; 0?" style="rhombus;whiteSpace=wrap;html=1;" parent="1" vertex="1">
          <mxGeometry x="40" y="780" width="120" height="110" as="geometry"/>
        </mxCell>
        <mxCell id="hdde1lct7cE2Mw9mdJ7z-32" style="edgeStyle=orthogonalEdgeStyle;rounded=0;orthogonalLoop=1;jettySize=auto;html=1;entryX=0;entryY=0.5;entryDx=0;entryDy=0;" edge="1" parent="1" source="q7iPShzVkiedBtI2jCNj-11" target="hdde1lct7cE2Mw9mdJ7z-23">
          <mxGeometry relative="1" as="geometry"/>
        </mxCell>
        <mxCell id="hdde1lct7cE2Mw9mdJ7z-68" style="edgeStyle=orthogonalEdgeStyle;rounded=0;orthogonalLoop=1;jettySize=auto;html=1;entryX=0;entryY=0.5;entryDx=0;entryDy=0;" edge="1" parent="1" source="q7iPShzVkiedBtI2jCNj-11" target="hdde1lct7cE2Mw9mdJ7z-52">
          <mxGeometry relative="1" as="geometry">
            <Array as="points">
              <mxPoint x="100" y="1035"/>
            </Array>
          </mxGeometry>
        </mxCell>
        <mxCell id="q7iPShzVkiedBtI2jCNj-11" value="number/5&amp;gt; 0?" style="rhombus;whiteSpace=wrap;html=1;" parent="1" vertex="1">
          <mxGeometry x="40" y="910" width="120" height="110" as="geometry"/>
        </mxCell>
        <mxCell id="q7iPShzVkiedBtI2jCNj-16" style="edgeStyle=orthogonalEdgeStyle;rounded=0;orthogonalLoop=1;jettySize=auto;html=1;entryX=0;entryY=0.5;entryDx=0;entryDy=0;" parent="1" source="q7iPShzVkiedBtI2jCNj-12" target="q7iPShzVkiedBtI2jCNj-13" edge="1">
          <mxGeometry relative="1" as="geometry"/>
        </mxCell>
        <mxCell id="q7iPShzVkiedBtI2jCNj-12" value="count = quotient of number/200" style="rounded=0;whiteSpace=wrap;html=1;" parent="1" vertex="1">
          <mxGeometry x="185" y="290" width="120" height="50" as="geometry"/>
        </mxCell>
        <mxCell id="q7iPShzVkiedBtI2jCNj-18" style="edgeStyle=orthogonalEdgeStyle;rounded=0;orthogonalLoop=1;jettySize=auto;html=1;entryX=0;entryY=0.5;entryDx=0;entryDy=0;" parent="1" source="q7iPShzVkiedBtI2jCNj-13" target="q7iPShzVkiedBtI2jCNj-14" edge="1">
          <mxGeometry relative="1" as="geometry"/>
        </mxCell>
        <mxCell id="q7iPShzVkiedBtI2jCNj-13" value="number = remainder of number/200" style="rounded=0;whiteSpace=wrap;html=1;" parent="1" vertex="1">
          <mxGeometry x="340" y="290" width="120" height="50" as="geometry"/>
        </mxCell>
        <mxCell id="q7iPShzVkiedBtI2jCNj-22" style="edgeStyle=orthogonalEdgeStyle;rounded=0;orthogonalLoop=1;jettySize=auto;html=1;entryX=0;entryY=0.5;entryDx=0;entryDy=0;" parent="1" source="q7iPShzVkiedBtI2jCNj-14" target="q7iPShzVkiedBtI2jCNj-21" edge="1">
          <mxGeometry relative="1" as="geometry"/>
        </mxCell>
        <mxCell id="q7iPShzVkiedBtI2jCNj-14" value="append count + &quot;x200s &quot; to results" style="rounded=0;whiteSpace=wrap;html=1;" parent="1" vertex="1">
          <mxGeometry x="487" y="290" width="120" height="50" as="geometry"/>
        </mxCell>
        <mxCell id="q7iPShzVkiedBtI2jCNj-23" style="edgeStyle=orthogonalEdgeStyle;rounded=0;orthogonalLoop=1;jettySize=auto;html=1;entryX=0.5;entryY=0;entryDx=0;entryDy=0;" parent="1" source="q7iPShzVkiedBtI2jCNj-21" target="q7iPShzVkiedBtI2jCNj-7" edge="1">
          <mxGeometry relative="1" as="geometry">
            <Array as="points">
              <mxPoint x="694" y="380"/>
              <mxPoint x="100" y="380"/>
            </Array>
          </mxGeometry>
        </mxCell>
        <mxCell id="q7iPShzVkiedBtI2jCNj-21" value="reset count back to zero" style="rounded=0;whiteSpace=wrap;html=1;" parent="1" vertex="1">
          <mxGeometry x="634" y="290" width="120" height="50" as="geometry"/>
        </mxCell>
        <mxCell id="hdde1lct7cE2Mw9mdJ7z-6" style="edgeStyle=orthogonalEdgeStyle;rounded=0;orthogonalLoop=1;jettySize=auto;html=1;entryX=0;entryY=0.5;entryDx=0;entryDy=0;" edge="1" parent="1" source="hdde1lct7cE2Mw9mdJ7z-1" target="hdde1lct7cE2Mw9mdJ7z-2">
          <mxGeometry relative="1" as="geometry"/>
        </mxCell>
        <mxCell id="hdde1lct7cE2Mw9mdJ7z-1" value="count = quotient of number/100" style="rounded=0;whiteSpace=wrap;html=1;" vertex="1" parent="1">
          <mxGeometry x="185" y="420" width="120" height="50" as="geometry"/>
        </mxCell>
        <mxCell id="hdde1lct7cE2Mw9mdJ7z-7" style="edgeStyle=orthogonalEdgeStyle;rounded=0;orthogonalLoop=1;jettySize=auto;html=1;entryX=0;entryY=0.5;entryDx=0;entryDy=0;" edge="1" parent="1" source="hdde1lct7cE2Mw9mdJ7z-2" target="hdde1lct7cE2Mw9mdJ7z-3">
          <mxGeometry relative="1" as="geometry"/>
        </mxCell>
        <mxCell id="hdde1lct7cE2Mw9mdJ7z-2" value="number = remainder of number/100" style="rounded=0;whiteSpace=wrap;html=1;" vertex="1" parent="1">
          <mxGeometry x="340" y="420" width="120" height="50" as="geometry"/>
        </mxCell>
        <mxCell id="hdde1lct7cE2Mw9mdJ7z-8" style="edgeStyle=orthogonalEdgeStyle;rounded=0;orthogonalLoop=1;jettySize=auto;html=1;entryX=0;entryY=0.5;entryDx=0;entryDy=0;" edge="1" parent="1" source="hdde1lct7cE2Mw9mdJ7z-3" target="hdde1lct7cE2Mw9mdJ7z-4">
          <mxGeometry relative="1" as="geometry"/>
        </mxCell>
        <mxCell id="hdde1lct7cE2Mw9mdJ7z-3" value="append count + &quot;x100s &quot; to results" style="rounded=0;whiteSpace=wrap;html=1;" vertex="1" parent="1">
          <mxGeometry x="487" y="420" width="120" height="50" as="geometry"/>
        </mxCell>
        <mxCell id="hdde1lct7cE2Mw9mdJ7z-10" style="edgeStyle=orthogonalEdgeStyle;rounded=0;orthogonalLoop=1;jettySize=auto;html=1;entryX=0.5;entryY=0;entryDx=0;entryDy=0;" edge="1" parent="1" source="hdde1lct7cE2Mw9mdJ7z-4" target="q7iPShzVkiedBtI2jCNj-8">
          <mxGeometry relative="1" as="geometry">
            <Array as="points">
              <mxPoint x="694" y="510"/>
              <mxPoint x="100" y="510"/>
            </Array>
          </mxGeometry>
        </mxCell>
        <mxCell id="hdde1lct7cE2Mw9mdJ7z-4" value="reset count back to zero" style="rounded=0;whiteSpace=wrap;html=1;" vertex="1" parent="1">
          <mxGeometry x="634" y="420" width="120" height="50" as="geometry"/>
        </mxCell>
        <mxCell id="hdde1lct7cE2Mw9mdJ7z-63" style="edgeStyle=orthogonalEdgeStyle;rounded=0;orthogonalLoop=1;jettySize=auto;html=1;entryX=0;entryY=0.5;entryDx=0;entryDy=0;" edge="1" parent="1" source="hdde1lct7cE2Mw9mdJ7z-11" target="hdde1lct7cE2Mw9mdJ7z-12">
          <mxGeometry relative="1" as="geometry"/>
        </mxCell>
        <mxCell id="hdde1lct7cE2Mw9mdJ7z-11" value="count = quotient of number/50" style="rounded=0;whiteSpace=wrap;html=1;" vertex="1" parent="1">
          <mxGeometry x="185" y="550" width="120" height="50" as="geometry"/>
        </mxCell>
        <mxCell id="hdde1lct7cE2Mw9mdJ7z-64" style="edgeStyle=orthogonalEdgeStyle;rounded=0;orthogonalLoop=1;jettySize=auto;html=1;entryX=0;entryY=0.5;entryDx=0;entryDy=0;" edge="1" parent="1" source="hdde1lct7cE2Mw9mdJ7z-12" target="hdde1lct7cE2Mw9mdJ7z-13">
          <mxGeometry relative="1" as="geometry"/>
        </mxCell>
        <mxCell id="hdde1lct7cE2Mw9mdJ7z-12" value="number = remainder of number/50" style="rounded=0;whiteSpace=wrap;html=1;" vertex="1" parent="1">
          <mxGeometry x="340" y="550" width="120" height="50" as="geometry"/>
        </mxCell>
        <mxCell id="hdde1lct7cE2Mw9mdJ7z-65" style="edgeStyle=orthogonalEdgeStyle;rounded=0;orthogonalLoop=1;jettySize=auto;html=1;entryX=0;entryY=0.5;entryDx=0;entryDy=0;" edge="1" parent="1" source="hdde1lct7cE2Mw9mdJ7z-13" target="hdde1lct7cE2Mw9mdJ7z-14">
          <mxGeometry relative="1" as="geometry"/>
        </mxCell>
        <mxCell id="hdde1lct7cE2Mw9mdJ7z-13" value="append count + &quot;x50s &quot; to results" style="rounded=0;whiteSpace=wrap;html=1;" vertex="1" parent="1">
          <mxGeometry x="487" y="550" width="120" height="50" as="geometry"/>
        </mxCell>
        <mxCell id="hdde1lct7cE2Mw9mdJ7z-57" style="edgeStyle=orthogonalEdgeStyle;rounded=0;orthogonalLoop=1;jettySize=auto;html=1;" edge="1" parent="1" source="hdde1lct7cE2Mw9mdJ7z-14" target="q7iPShzVkiedBtI2jCNj-9">
          <mxGeometry relative="1" as="geometry">
            <Array as="points">
              <mxPoint x="694" y="640"/>
              <mxPoint x="100" y="640"/>
            </Array>
          </mxGeometry>
        </mxCell>
        <mxCell id="hdde1lct7cE2Mw9mdJ7z-14" value="reset count back to zero" style="rounded=0;whiteSpace=wrap;html=1;" vertex="1" parent="1">
          <mxGeometry x="634" y="550" width="120" height="50" as="geometry"/>
        </mxCell>
        <mxCell id="hdde1lct7cE2Mw9mdJ7z-47" style="edgeStyle=orthogonalEdgeStyle;rounded=0;orthogonalLoop=1;jettySize=auto;html=1;entryX=0;entryY=0.5;entryDx=0;entryDy=0;" edge="1" parent="1" source="hdde1lct7cE2Mw9mdJ7z-15" target="hdde1lct7cE2Mw9mdJ7z-16">
          <mxGeometry relative="1" as="geometry"/>
        </mxCell>
        <mxCell id="hdde1lct7cE2Mw9mdJ7z-15" value="count = quotient of number/20" style="rounded=0;whiteSpace=wrap;html=1;" vertex="1" parent="1">
          <mxGeometry x="185" y="680" width="120" height="50" as="geometry"/>
        </mxCell>
        <mxCell id="hdde1lct7cE2Mw9mdJ7z-48" style="edgeStyle=orthogonalEdgeStyle;rounded=0;orthogonalLoop=1;jettySize=auto;html=1;entryX=0;entryY=0.5;entryDx=0;entryDy=0;" edge="1" parent="1" source="hdde1lct7cE2Mw9mdJ7z-16" target="hdde1lct7cE2Mw9mdJ7z-17">
          <mxGeometry relative="1" as="geometry"/>
        </mxCell>
        <mxCell id="hdde1lct7cE2Mw9mdJ7z-16" value="number = remainder of number/20" style="rounded=0;whiteSpace=wrap;html=1;" vertex="1" parent="1">
          <mxGeometry x="340" y="680" width="120" height="50" as="geometry"/>
        </mxCell>
        <mxCell id="hdde1lct7cE2Mw9mdJ7z-49" style="edgeStyle=orthogonalEdgeStyle;rounded=0;orthogonalLoop=1;jettySize=auto;html=1;entryX=0;entryY=0.5;entryDx=0;entryDy=0;" edge="1" parent="1" source="hdde1lct7cE2Mw9mdJ7z-17" target="hdde1lct7cE2Mw9mdJ7z-18">
          <mxGeometry relative="1" as="geometry"/>
        </mxCell>
        <mxCell id="hdde1lct7cE2Mw9mdJ7z-17" value="append count + &quot;x20s &quot; to results" style="rounded=0;whiteSpace=wrap;html=1;" vertex="1" parent="1">
          <mxGeometry x="487" y="680" width="120" height="50" as="geometry"/>
        </mxCell>
        <mxCell id="hdde1lct7cE2Mw9mdJ7z-50" style="edgeStyle=orthogonalEdgeStyle;rounded=0;orthogonalLoop=1;jettySize=auto;html=1;entryX=0.5;entryY=0;entryDx=0;entryDy=0;" edge="1" parent="1" source="hdde1lct7cE2Mw9mdJ7z-18" target="q7iPShzVkiedBtI2jCNj-10">
          <mxGeometry relative="1" as="geometry">
            <Array as="points">
              <mxPoint x="694" y="770"/>
              <mxPoint x="100" y="770"/>
            </Array>
          </mxGeometry>
        </mxCell>
        <mxCell id="hdde1lct7cE2Mw9mdJ7z-18" value="reset count back to zero" style="rounded=0;whiteSpace=wrap;html=1;" vertex="1" parent="1">
          <mxGeometry x="634" y="680" width="120" height="50" as="geometry"/>
        </mxCell>
        <mxCell id="hdde1lct7cE2Mw9mdJ7z-39" style="edgeStyle=orthogonalEdgeStyle;rounded=0;orthogonalLoop=1;jettySize=auto;html=1;entryX=0;entryY=0.5;entryDx=0;entryDy=0;" edge="1" parent="1" source="hdde1lct7cE2Mw9mdJ7z-19" target="hdde1lct7cE2Mw9mdJ7z-20">
          <mxGeometry relative="1" as="geometry"/>
        </mxCell>
        <mxCell id="hdde1lct7cE2Mw9mdJ7z-19" value="count = quotient of number/10" style="rounded=0;whiteSpace=wrap;html=1;" vertex="1" parent="1">
          <mxGeometry x="185" y="810" width="120" height="50" as="geometry"/>
        </mxCell>
        <mxCell id="hdde1lct7cE2Mw9mdJ7z-40" style="edgeStyle=orthogonalEdgeStyle;rounded=0;orthogonalLoop=1;jettySize=auto;html=1;entryX=0;entryY=0.5;entryDx=0;entryDy=0;" edge="1" parent="1" source="hdde1lct7cE2Mw9mdJ7z-20" target="hdde1lct7cE2Mw9mdJ7z-21">
          <mxGeometry relative="1" as="geometry"/>
        </mxCell>
        <mxCell id="hdde1lct7cE2Mw9mdJ7z-20" value="number = remainder of number/10" style="rounded=0;whiteSpace=wrap;html=1;" vertex="1" parent="1">
          <mxGeometry x="340" y="810" width="120" height="50" as="geometry"/>
        </mxCell>
        <mxCell id="hdde1lct7cE2Mw9mdJ7z-41" style="edgeStyle=orthogonalEdgeStyle;rounded=0;orthogonalLoop=1;jettySize=auto;html=1;entryX=0;entryY=0.5;entryDx=0;entryDy=0;" edge="1" parent="1" source="hdde1lct7cE2Mw9mdJ7z-21" target="hdde1lct7cE2Mw9mdJ7z-22">
          <mxGeometry relative="1" as="geometry"/>
        </mxCell>
        <mxCell id="hdde1lct7cE2Mw9mdJ7z-21" value="append count + &quot;x10s &quot; to results" style="rounded=0;whiteSpace=wrap;html=1;" vertex="1" parent="1">
          <mxGeometry x="485" y="810" width="120" height="50" as="geometry"/>
        </mxCell>
        <mxCell id="hdde1lct7cE2Mw9mdJ7z-42" style="edgeStyle=orthogonalEdgeStyle;rounded=0;orthogonalLoop=1;jettySize=auto;html=1;entryX=0.5;entryY=0;entryDx=0;entryDy=0;" edge="1" parent="1" source="hdde1lct7cE2Mw9mdJ7z-22" target="q7iPShzVkiedBtI2jCNj-11">
          <mxGeometry relative="1" as="geometry">
            <Array as="points">
              <mxPoint x="694" y="900"/>
              <mxPoint x="100" y="900"/>
            </Array>
          </mxGeometry>
        </mxCell>
        <mxCell id="hdde1lct7cE2Mw9mdJ7z-22" value="reset count back to zero" style="rounded=0;whiteSpace=wrap;html=1;" vertex="1" parent="1">
          <mxGeometry x="634" y="810" width="120" height="50" as="geometry"/>
        </mxCell>
        <mxCell id="hdde1lct7cE2Mw9mdJ7z-33" style="edgeStyle=orthogonalEdgeStyle;rounded=0;orthogonalLoop=1;jettySize=auto;html=1;entryX=0;entryY=0.5;entryDx=0;entryDy=0;" edge="1" parent="1" source="hdde1lct7cE2Mw9mdJ7z-23" target="hdde1lct7cE2Mw9mdJ7z-24">
          <mxGeometry relative="1" as="geometry"/>
        </mxCell>
        <mxCell id="hdde1lct7cE2Mw9mdJ7z-23" value="count = quotient of number/5" style="rounded=0;whiteSpace=wrap;html=1;" vertex="1" parent="1">
          <mxGeometry x="200" y="910" width="120" height="50" as="geometry"/>
        </mxCell>
        <mxCell id="hdde1lct7cE2Mw9mdJ7z-34" style="edgeStyle=orthogonalEdgeStyle;rounded=0;orthogonalLoop=1;jettySize=auto;html=1;entryX=0;entryY=0.5;entryDx=0;entryDy=0;" edge="1" parent="1" source="hdde1lct7cE2Mw9mdJ7z-24" target="hdde1lct7cE2Mw9mdJ7z-25">
          <mxGeometry relative="1" as="geometry"/>
        </mxCell>
        <mxCell id="hdde1lct7cE2Mw9mdJ7z-24" value="number = remainder of number/5" style="rounded=0;whiteSpace=wrap;html=1;" vertex="1" parent="1">
          <mxGeometry x="343.5" y="910" width="120" height="50" as="geometry"/>
        </mxCell>
        <mxCell id="hdde1lct7cE2Mw9mdJ7z-35" style="edgeStyle=orthogonalEdgeStyle;rounded=0;orthogonalLoop=1;jettySize=auto;html=1;" edge="1" parent="1" source="hdde1lct7cE2Mw9mdJ7z-25" target="hdde1lct7cE2Mw9mdJ7z-26">
          <mxGeometry relative="1" as="geometry"/>
        </mxCell>
        <mxCell id="hdde1lct7cE2Mw9mdJ7z-25" value="append count + &quot;x5s &quot; to results" style="rounded=0;whiteSpace=wrap;html=1;" vertex="1" parent="1">
          <mxGeometry x="485" y="910" width="120" height="50" as="geometry"/>
        </mxCell>
        <mxCell id="hdde1lct7cE2Mw9mdJ7z-69" style="edgeStyle=orthogonalEdgeStyle;rounded=0;orthogonalLoop=1;jettySize=auto;html=1;entryX=0;entryY=0.5;entryDx=0;entryDy=0;" edge="1" parent="1" source="hdde1lct7cE2Mw9mdJ7z-26" target="hdde1lct7cE2Mw9mdJ7z-52">
          <mxGeometry relative="1" as="geometry">
            <Array as="points">
              <mxPoint x="694" y="970"/>
              <mxPoint x="160" y="970"/>
              <mxPoint x="160" y="1035"/>
            </Array>
          </mxGeometry>
        </mxCell>
        <mxCell id="hdde1lct7cE2Mw9mdJ7z-26" value="reset count back to zero" style="rounded=0;whiteSpace=wrap;html=1;" vertex="1" parent="1">
          <mxGeometry x="634" y="910" width="120" height="50" as="geometry"/>
        </mxCell>
        <mxCell id="hdde1lct7cE2Mw9mdJ7z-43" style="edgeStyle=orthogonalEdgeStyle;rounded=0;orthogonalLoop=1;jettySize=auto;html=1;" edge="1" parent="1" source="hdde1lct7cE2Mw9mdJ7z-27" target="hdde1lct7cE2Mw9mdJ7z-28">
          <mxGeometry relative="1" as="geometry"/>
        </mxCell>
        <mxCell id="hdde1lct7cE2Mw9mdJ7z-27" value="count = number" style="rounded=0;whiteSpace=wrap;html=1;" vertex="1" parent="1">
          <mxGeometry x="343.5" y="995" width="120" height="50" as="geometry"/>
        </mxCell>
        <mxCell id="hdde1lct7cE2Mw9mdJ7z-44" style="edgeStyle=orthogonalEdgeStyle;rounded=0;orthogonalLoop=1;jettySize=auto;html=1;entryX=0;entryY=0.5;entryDx=0;entryDy=0;" edge="1" parent="1" source="hdde1lct7cE2Mw9mdJ7z-28" target="hdde1lct7cE2Mw9mdJ7z-29">
          <mxGeometry relative="1" as="geometry"/>
        </mxCell>
        <mxCell id="hdde1lct7cE2Mw9mdJ7z-28" value="append count + &quot;x1s &quot; to results" style="rounded=0;whiteSpace=wrap;html=1;" vertex="1" parent="1">
          <mxGeometry x="485" y="995" width="120" height="50" as="geometry"/>
        </mxCell>
        <mxCell id="hdde1lct7cE2Mw9mdJ7z-54" style="edgeStyle=orthogonalEdgeStyle;rounded=0;orthogonalLoop=1;jettySize=auto;html=1;entryX=0.5;entryY=0;entryDx=0;entryDy=0;" edge="1" parent="1" source="hdde1lct7cE2Mw9mdJ7z-29" target="q7iPShzVkiedBtI2jCNj-2">
          <mxGeometry relative="1" as="geometry">
            <Array as="points">
              <mxPoint x="780" y="1020"/>
            </Array>
          </mxGeometry>
        </mxCell>
        <mxCell id="hdde1lct7cE2Mw9mdJ7z-29" value="Display results" style="shape=parallelogram;perimeter=parallelogramPerimeter;whiteSpace=wrap;html=1;" vertex="1" parent="1">
          <mxGeometry x="626.5" y="995" width="130" height="50" as="geometry"/>
        </mxCell>
        <mxCell id="hdde1lct7cE2Mw9mdJ7z-58" style="edgeStyle=orthogonalEdgeStyle;rounded=0;orthogonalLoop=1;jettySize=auto;html=1;entryX=0;entryY=0.5;entryDx=0;entryDy=0;" edge="1" parent="1" source="hdde1lct7cE2Mw9mdJ7z-52" target="hdde1lct7cE2Mw9mdJ7z-27">
          <mxGeometry relative="1" as="geometry"/>
        </mxCell>
        <mxCell id="hdde1lct7cE2Mw9mdJ7z-59" style="edgeStyle=orthogonalEdgeStyle;rounded=0;orthogonalLoop=1;jettySize=auto;html=1;entryX=0.5;entryY=1;entryDx=0;entryDy=0;" edge="1" parent="1" source="hdde1lct7cE2Mw9mdJ7z-52" target="hdde1lct7cE2Mw9mdJ7z-29">
          <mxGeometry relative="1" as="geometry">
            <Array as="points">
              <mxPoint x="692" y="1090"/>
            </Array>
          </mxGeometry>
        </mxCell>
        <mxCell id="hdde1lct7cE2Mw9mdJ7z-52" value="number &amp;gt; 0?" style="rhombus;whiteSpace=wrap;html=1;" vertex="1" parent="1">
          <mxGeometry x="180" y="980" width="120" height="110" as="geometry"/>
        </mxCell>
      </root>
    </mxGraphModel>
  </diagram>
</mxfile>
